<svg xmlns="http://www.w3.org/2000/svg" version="1.1" x="0" y="0" width="170.12" height="145.81" viewBox="0 0 170.12 145.81" enable-background="new 0 0 170.117 145.805" xml:space="preserve"><path fill="#AD2115" d="M159.46 57.35c-0.36-0.13-0.8-0.3-1.29-0.48 0.52-0.25 1.01-0.49 1.39-0.69 4.39-2.29 6.33-4.06 6.33-5.67 0-1.52 0-16.11 0-16.11 0 0-0.01 0-0.02 0 0.08-1.64-2.09-3.08-6.42-4.67C151.05 26.64 106.62 8.96 98.11 5.84c-8.51-3.12-11.98-2.99-21.97 0.6 -10 3.59-57.3 22.14-65.71 25.44 -4.21 1.65-6.27 3.18-6.2 4.81l0 0v16.34c0 1.63 2.25 3.36 6.53 5.4 0.32 0.15 0.69 0.33 1.11 0.52 -0.56 0.22-1.04 0.41-1.44 0.56 -4.21 1.65-6.27 3.18-6.2 4.81v16.35c0 1.63 2.24 3.34 6.49 5.38 -0.1 0.04-0.2 0.08-0.29 0.11 -4.21 1.65-6.27 3.18-6.2 4.81l0 0v16.34c0 1.63 2.25 3.36 6.53 5.41 8.57 4.1 56.13 23.31 63.65 26.9 7.52 3.59 12.8 3.64 22.32-1.32 9.52-4.96 54.21-23.34 62.84-27.83 4.39-2.29 6.33-4.06 6.33-5.68 0-1.52 0-16.11 0-16.11 0 0-0.01 0-0.01-0.01 0.07-1.64-2.09-3.08-6.42-4.67 -0.04-0.02-0.1-0.04-0.15-0.06 0.08-0.04 0.18-0.09 0.26-0.13 4.39-2.29 6.33-4.06 6.33-5.68 0-1.52 0-16.11 0-16.11 0 0-0.01 0-0.01 0C165.95 60.38 163.79 58.94 159.46 57.35z"/><g transform="translate(-166.32586,-222.11295)"><path fill="#A41E11" d="M325.89 332.58c-8.63 4.5-53.32 22.87-62.84 27.83 -9.51 4.96-14.8 4.92-22.32 1.32 -7.52-3.59-55.08-22.81-63.65-26.9 -4.28-2.05-6.53-3.77-6.53-5.4v-16.34c0 0 61.92-13.48 71.92-17.07 10-3.59 13.46-3.72 21.97-0.6 8.51 3.12 59.38 12.29 67.78 15.37 0 0 0 14.6 0 16.11C332.22 328.52 330.28 330.29 325.89 332.58L325.89 332.58z"/><path fill="#D82C20" d="M325.89 316.23c-8.63 4.5-53.32 22.87-62.84 27.83 -9.51 4.96-14.8 4.91-22.32 1.32 -7.52-3.59-55.08-22.81-63.65-26.9s-8.75-6.91-0.33-10.21c8.42-3.3 55.72-21.85 65.72-25.44 9.99-3.58 13.46-3.72 21.97-0.6 8.51 3.12 52.94 20.8 61.34 23.88C334.19 309.2 334.51 311.74 325.89 316.23L325.89 316.23z"/><path fill="#A41E11" d="M325.89 305.93c-8.63 4.5-53.32 22.87-62.84 27.84 -9.51 4.96-14.8 4.91-22.32 1.32 -7.52-3.59-55.08-22.8-63.65-26.9 -4.28-2.05-6.53-3.77-6.53-5.4v-16.35c0 0 61.92-13.48 71.92-17.07 10-3.59 13.46-3.72 21.97-0.6 8.51 3.12 59.38 12.29 67.78 15.37 0 0 0 14.6 0 16.11C332.22 301.87 330.28 303.64 325.89 305.93z"/><path fill="#D82C20" d="M325.89 289.58c-8.63 4.5-53.32 22.88-62.84 27.84 -9.51 4.96-14.8 4.91-22.32 1.32 -7.52-3.59-55.08-22.81-63.65-26.9 -8.57-4.09-8.75-6.91-0.33-10.21 8.42-3.29 55.72-21.85 65.72-25.44 9.99-3.59 13.46-3.72 21.97-0.6 8.51 3.12 52.94 20.8 61.34 23.88C334.19 282.55 334.51 285.09 325.89 289.58L325.89 289.58z"/><path fill="#A41E11" d="M325.89 278.29c-8.63 4.5-53.32 22.88-62.84 27.84 -9.51 4.96-14.8 4.91-22.32 1.32 -7.52-3.59-55.08-22.81-63.65-26.9 -4.28-2.04-6.53-3.77-6.53-5.4V258.8c0 0 61.92-13.48 71.92-17.07 10-3.59 13.46-3.72 21.97-0.6 8.51 3.12 59.38 12.29 67.78 15.37 0 0 0 14.6 0 16.11C332.22 274.23 330.28 276 325.89 278.29z"/><path fill="#D82C20" d="M325.89 261.95c-8.63 4.5-53.32 22.88-62.84 27.84 -9.51 4.96-14.8 4.91-22.32 1.32 -7.52-3.59-55.08-22.81-63.65-26.9 -8.57-4.09-8.75-6.91-0.33-10.21 8.42-3.3 55.72-21.85 65.72-25.44 9.99-3.58 13.46-3.72 21.97-0.6 8.51 3.12 52.94 20.8 61.34 23.88C334.19 254.91 334.51 257.45 325.89 261.95L325.89 261.95z"/><polygon fill="#FFFFFF" points="272.57 246.21 258.56 247.66 255.42 255.21 250.36 246.79 234.18 245.33 246.25 240.98 242.63 234.3 253.93 238.72 264.59 235.23 261.71 242.14 "/><polygon fill="#FFFFFF" points="254.59 282.82 228.44 271.97 265.91 266.22 "/><ellipse fill="#FFFFFF" cx="218.34" cy="258.16" rx="20.02" ry="7.76"/><polygon fill="#7A0C00" points="289.13 248.27 311.3 257.03 289.14 265.79 "/><polygon fill="#AD2115" points="264.6 257.97 289.13 248.27 289.14 265.79 286.74 266.73 "/></g></svg>