<svg xmlns="http://www.w3.org/2000/svg" version="1.1" x="0" y="0" width="252" height="252" viewBox="0 0 252 252" enable-background="new 0 0 252 252" xml:space="preserve"><circle fill="#FFFFFF" cx="126.4" cy="126.1" r="122.5"/><path fill="#464342" d="M19.1 126.1c0 42.5 24.7 79.2 60.5 96.6L28.4 82.5C22.4 95.8 19.1 110.6 19.1 126.1zM198.9 120.7c0-13.3-4.8-22.5-8.9-29.6 -5.4-8.8-10.5-16.3-10.5-25.2 0-9.9 7.5-19.1 18-19.1 0.5 0 0.9 0.1 1.4 0.1 -19.1-17.5-44.5-28.2-72.5-28.2 -37.5 0-70.5 19.2-89.7 48.4 2.5 0.1 4.9 0.1 6.9 0.1 11.2 0 28.6-1.4 28.6-1.4 5.8-0.3 6.5 8.2 0.7 8.8 0 0-5.8 0.7-12.3 1l39.1 116.3 23.5-70.5 -16.7-45.8c-5.8-0.3-11.3-1-11.3-1 -5.8-0.3-5.1-9.2 0.7-8.8 0 0 17.7 1.4 28.3 1.4 11.2 0 28.6-1.4 28.6-1.4 5.8-0.3 6.5 8.2 0.7 8.8 0 0-5.8 0.7-12.3 1l38.8 115.4 10.7-35.8C195.4 140.6 198.9 129.9 198.9 120.7zM128.3 135.5l-32.2 93.6c9.6 2.8 19.8 4.4 30.3 4.4 12.5 0 24.5-2.2 35.6-6.1 -0.3-0.5-0.5-0.9-0.8-1.5L128.3 135.5zM220.6 74.6c0.5 3.4 0.7 7.1 0.7 11 0 10.9-2 23.1-8.2 38.5l-32.8 94.8c31.9-18.6 53.4-53.2 53.4-92.8C233.8 107.5 229 89.9 220.6 74.6zM126.4 1C57.4 1 1.3 57.1 1.3 126.1c0 69 56.1 125.1 125.1 125.1 69 0 125.1-56.1 125.1-125.1C251.6 57.1 195.4 1 126.4 1zM126.4 245.6c-65.8 0-119.4-53.6-119.4-119.4 0-65.8 53.6-119.4 119.4-119.4 65.8 0 119.4 53.6 119.4 119.4C245.8 192 192.3 245.6 126.4 245.6z"/></svg>