<?xml version="1.0" encoding="UTF-8" standalone="no"?>
<!-- Created with Inkscape (http://www.inkscape.org/) -->

<svg
   xmlns:dc="http://purl.org/dc/elements/1.1/"
   xmlns:cc="http://creativecommons.org/ns#"
   xmlns:rdf="http://www.w3.org/1999/02/22-rdf-syntax-ns#"
   xmlns:svg="http://www.w3.org/2000/svg"
   xmlns="http://www.w3.org/2000/svg"
   xmlns:sodipodi="http://sodipodi.sourceforge.net/DTD/sodipodi-0.dtd"
   xmlns:inkscape="http://www.inkscape.org/namespaces/inkscape"
   version="1.1"
   width="1000"
   height="1000"
   viewBox="0 0 1000 1000"
   id="Layer_1"
   xml:space="preserve"
   inkscape:version="0.48.4 r9939"
   sodipodi:docname="logo (copy).svg"><sodipodi:namedview
     pagecolor="#ffffff"
     bordercolor="#666666"
     borderopacity="1"
     objecttolerance="10"
     gridtolerance="10"
     guidetolerance="10"
     inkscape:pageopacity="0"
     inkscape:pageshadow="2"
     inkscape:window-width="1920"
     inkscape:window-height="1053"
     id="namedview10"
     showgrid="false"
     inkscape:zoom="0.236"
     inkscape:cx="-235.16949"
     inkscape:cy="500"
     inkscape:window-x="0"
     inkscape:window-y="27"
     inkscape:window-maximized="1"
     inkscape:current-layer="Layer_1" /><metadata
     id="metadata17"><rdf:RDF><cc:Work
         rdf:about=""><dc:format>image/svg+xml</dc:format><dc:type
           rdf:resource="http://purl.org/dc/dcmitype/StillImage" /><dc:title /></cc:Work></rdf:RDF></metadata><defs
     id="defs15" /><g
     id="g3"
     transform="matrix(1.5065589,0,0,1.5065589,-227.14123,-303.77096)"><path
       d="m 385.147,515.143 c 35.362,-66.106 70.21,-131.244 106.229,-198.579 35.74,66.737 70.681,131.981 106.324,198.543 -19.365,7.295 -37.551,14.146 -56.312,21.212 -16.617,-30.706 -32.823,-60.653 -49.995,-92.381 -17.271,31.925 -33.488,61.9 -49.993,92.41 -18.861,-7.113 -37.094,-13.983 -56.253,-21.205 z"
       id="path5"
       style="fill-rule:evenodd"
       inkscape:connector-curvature="0" /><path
       d="m 363.502,565.471 c 19.31,7.271 37.215,14.016 56.275,21.195 -12.048,27.788 -23.655,54.715 -35.404,81.582 -4.563,10.437 -6.852,24.673 -14.913,29.984 -8.065,5.316 -22.05,1.77 -33.442,1.883 -13.757,0.135 -27.515,0.03 -43.287,0.03 23.873,-45.422 47.017,-89.466 70.771,-134.674 z"
       id="path7"
       style="fill-rule:evenodd"
       inkscape:connector-curvature="0" /><path
       d="m 562.939,586.627 c 16.701,-7.137 32.522,-13.896 49.298,-21.065 23.53,44.724 46.708,88.776 70.797,134.559 -23.334,0 -44.548,0.311 -65.733,-0.361 -2.902,-0.093 -6.814,-4.559 -8.293,-7.873 -15.381,-34.51 -30.359,-69.198 -46.069,-105.26 z"
       id="path9"
       style="fill-rule:evenodd"
       inkscape:connector-curvature="0" /></g><path
     d="m 503.96724,16.50261 c -268.28802,0 -485.77937,217.49288 -485.77937,485.78541 0,268.29101 217.49287,485.77936 485.77937,485.77936 268.29103,0 485.78388,-217.48835 485.78388,-485.77936 0,-268.29253 -217.49285,-485.78541 -485.78388,-485.78541 z m 0,914.84132 c -236.96213,0 -429.055924,-192.09378 -429.055924,-429.05591 0,-236.96666 192.093794,-429.06195 429.055924,-429.06195 236.96363,0 429.05894,192.09529 429.05894,429.06195 9.8e-4,236.96213 -192.0953,429.05591 -429.05893,429.05591 z"
     id="path11"
     style="fill:#020202;fill-rule:evenodd"
     inkscape:connector-curvature="0" /></svg>